<svg xmlns="http://www.w3.org/2000/svg" role="img" aria-label={title} viewBox="0 0 412 157">
    <title>{{ site.name }}</title>
    <g fill="#35185a">
        <path d="m12.312 104.848 56.86-98.822 57.35 98.331-114.21.491ZM9.062 104.384 8.24 48.312 65.782 5.86l-56.72 98.525ZM129.193 103.774l.878-55.093L72.229 5.826l56.964 97.948ZM69.172 150.174l-56.86-42.42 114.209-.907-57.349 43.327ZM149.23 8.512h25.133v3.656h-10.367v28.447h-4.345V12.168h-10.42V8.512Zm55.73 0v32.103h-4.363V26.011h-17.293v14.604h-4.372V8.512h4.372V22.83h17.293V8.512h4.363Zm7.84 0h19.783v3.54h-15.41v10.662h12.471v3.404h-12.472v10.958h15.411v3.54H212.8V8.511ZM160.565 62.728h-3.289v13.395h-4.327V44.02h9.076c2.031 0 3.784.206 5.26.618 1.48.412 2.703 1.006 3.664 1.783a7.177 7.177 0 0 1 2.141 2.814c.46 1.093.69 2.32.69 3.682 0 1.135-.179 2.195-.537 3.18a8.349 8.349 0 0 1-1.56 2.653 9.062 9.062 0 0 1-2.481 2.007c-.98.55-2.088.968-3.324 1.254.537.311 1.015.765 1.433 1.362l9.363 12.75h-3.852c-.795 0-1.378-.307-1.748-.923l-8.332-11.468c-.257-.359-.535-.616-.833-.771-.299-.155-.747-.233-1.344-.233Zm-3.289-15.276v12.113h4.543c1.272 0 2.39-.152 3.35-.457.962-.304 1.769-.737 2.42-1.299a5.398 5.398 0 0 0 1.47-2.007c.328-.777.492-1.633.492-2.571 0-1.911-.633-3.354-1.9-4.328-1.26-.968-3.135-1.451-5.626-1.451h-4.749Zm37.65-3.432 12.839 32.103h-3.36c-.388 0-.702-.099-.941-.296a1.752 1.752 0 0 1-.538-.734l-3.001-7.75h-14.407l-3.002 7.75c-.101.268-.28.508-.538.716-.25.21-.564.314-.94.314h-3.36l12.84-32.103h4.407Zm-3.155 7.15-5.044 13.036h11.988l-5.044-13.063c-.329-.806-.648-1.813-.959-3.02-.167.61-.329 1.174-.484 1.694-.155.513-.307.965-.457 1.353Zm35.84 13.35c.208.358.391.735.546 1.129.155.394.307.795.457 1.2.15-.418.307-.817.475-1.2.161-.383.347-.768.555-1.156l10.869-19.73c.19-.346.391-.555.6-.627.209-.077.508-.116.896-.116h3.208v32.103h-3.808V52.532c0-.311.006-.645.018-1.004.018-.358.042-.725.071-1.102l-11.002 20.07c-.37.675-.894 1.013-1.568 1.013h-.627c-.67 0-1.192-.338-1.568-1.013l-11.245-20.132c.048.388.08.767.099 1.137.024.377.035.72.035 1.03v23.592h-3.807V44.02h3.207c.388 0 .687.039.896.116.209.072.41.28.6.628l11.093 19.756Zm36.77 11.603H253.03V44.02h10.24c1.972 0 3.668.194 5.09.582 1.427.395 2.6.947 3.52 1.658a6.472 6.472 0 0 1 2.035 2.634c.441 1.04.663 2.207.663 3.503a7.13 7.13 0 0 1-.368 2.285 6.579 6.579 0 0 1-1.12 2.043 7.904 7.904 0 0 1-1.881 1.675c-.759.496-1.642.9-2.652 1.21 2.341.466 4.11 1.31 5.304 2.536 1.194 1.224 1.792 2.837 1.792 4.838 0 1.356-.25 2.596-.753 3.718a7.778 7.778 0 0 1-2.195 2.885c-.961.807-2.141 1.431-3.539 1.873-1.398.442-2.993.663-4.784.663Zm-.08-14.622h-6.926v11.172h6.944c1.236 0 2.3-.143 3.19-.43.89-.28 1.621-.678 2.195-1.191.58-.52 1-1.132 1.263-1.837.275-.71.412-1.494.412-2.348 0-1.654-.589-2.963-1.765-3.924-1.171-.961-2.941-1.442-5.313-1.442Zm-6.926-14.05v10.95h5.734c1.225 0 2.285-.135 3.181-.404.896-.269 1.64-.642 2.231-1.12a4.458 4.458 0 0 0 1.308-1.729c.287-.68.43-1.425.43-2.23 0-1.882-.567-3.265-1.702-4.15-1.14-.877-2.903-1.316-5.286-1.316h-5.896Zm28.985-3.431v28.447h13.888v3.656h-18.234V44.02h4.346Zm23.833 0v32.103h-4.346V44.02h4.346Zm10.841 0c.388 0 .675.051.86.152.186.096.4.293.646.592l18.591 24.191a12.624 12.624 0 0 1-.09-1.129c-.017-.37-.026-.726-.026-1.066V44.02h3.808v32.103h-2.196c-.346 0-.633-.06-.86-.18-.233-.118-.463-.322-.69-.609L322.513 51.17c.03.37.05.735.062 1.093.018.358.027.687.027.986v22.874h-3.808V44.02h2.24Zm45.946 28.94c.866 0 1.66-.038 2.383-.116a14.978 14.978 0 0 0 2.052-.377 13.38 13.38 0 0 0 1.81-.591c.567-.233 1.135-.5 1.702-.797V64h-4.972c-.28 0-.508-.08-.681-.242a.816.816 0 0 1-.26-.609v-2.464h9.856v12.32a17.369 17.369 0 0 1-2.518 1.523c-.872.436-1.807.8-2.804 1.093-.992.287-2.055.502-3.19.645a29.543 29.543 0 0 1-3.692.215c-2.335 0-4.473-.4-6.415-1.2-1.941-.795-3.61-1.915-5.008-3.36-1.404-1.44-2.5-3.17-3.289-5.188-.782-2.013-1.173-4.229-1.173-6.648 0-2.449.385-4.683 1.156-6.702.764-2.013 1.86-3.739 3.288-5.179 1.427-1.445 3.154-2.562 5.179-3.35 2.024-.795 4.291-1.192 6.8-1.192 1.266 0 2.446.095 3.54.286 1.086.186 2.096.455 3.028.807.938.346 1.8.77 2.589 1.272a15.805 15.805 0 0 1 2.222 1.693l-1.236 1.972c-.251.4-.58.6-.986.6-.24 0-.5-.08-.78-.242a21.462 21.462 0 0 1-1.254-.762 10.9 10.9 0 0 0-1.693-.86c-.663-.28-1.45-.517-2.357-.708-.902-.19-1.97-.286-3.207-.286-1.81 0-3.447.293-4.91.878-1.463.591-2.709 1.436-3.737 2.535-1.033 1.093-1.825 2.422-2.374 3.987-.555 1.56-.833 3.31-.833 5.25 0 2.032.287 3.842.86 5.43.58 1.59 1.391 2.937 2.437 4.041a10.542 10.542 0 0 0 3.718 2.536c1.434.58 3.017.87 4.749.87Zm36.063-25.974-1.057 2.051a1.71 1.71 0 0 1-.421.511c-.15.108-.343.161-.582.161-.258 0-.553-.125-.888-.376a12.522 12.522 0 0 0-1.28-.842 10.627 10.627 0 0 0-1.855-.842c-.724-.251-1.602-.377-2.635-.377-.967 0-1.825.132-2.571.395-.746.257-1.371.609-1.873 1.057a4.296 4.296 0 0 0-1.129 1.586 4.928 4.928 0 0 0-.385 1.953c0 .896.221 1.64.663 2.231.442.591 1.024 1.096 1.747 1.514.723.419 1.544.78 2.464 1.084.92.305 1.861.621 2.823.95a33.12 33.12 0 0 1 2.822 1.111c.92.412 1.74.932 2.464 1.56a7.148 7.148 0 0 1 1.747 2.302c.442.914.663 2.034.663 3.36 0 1.404-.24 2.723-.717 3.96a9.05 9.05 0 0 1-2.096 3.208c-.92.913-2.05 1.63-3.387 2.15-1.333.526-2.85.788-4.552.788-2.078 0-3.972-.376-5.68-1.129-1.709-.759-3.17-1.78-4.382-3.064l1.255-2.06c.119-.162.266-.299.439-.413.173-.114.364-.17.573-.17.311 0 .67.17 1.075.51.4.335.903.702 1.506 1.103.609.406 1.34.777 2.195 1.11.86.335 1.91.503 3.154.503 1.027 0 1.944-.141 2.75-.422.807-.286 1.49-.687 2.052-1.2a5.147 5.147 0 0 0 1.29-1.846c.299-.717.448-1.517.448-2.401 0-.968-.221-1.763-.663-2.383a5.495 5.495 0 0 0-1.738-1.56 11.845 11.845 0 0 0-2.455-1.057c-.914-.293-1.855-.591-2.822-.896a30.853 30.853 0 0 1-2.823-1.066 9.359 9.359 0 0 1-2.446-1.568c-.716-.645-1.296-1.449-1.738-2.41-.442-.961-.663-2.153-.663-3.575a8.45 8.45 0 0 1 .663-3.288 8.45 8.45 0 0 1 1.918-2.823c.836-.824 1.87-1.48 3.1-1.97 1.23-.496 2.645-.744 4.247-.744 1.792 0 3.425.286 4.9.86a11.115 11.115 0 0 1 3.88 2.464ZM182.319 95.584c0 2.4-.383 4.608-1.147 6.62-.759 2.008-1.834 3.734-3.225 5.18-1.387 1.451-3.056 2.577-5.009 3.377-1.947.8-4.1 1.201-6.46 1.201-2.36 0-4.51-.4-6.451-1.2-1.942-.8-3.605-1.927-4.99-3.378-1.392-1.446-2.467-3.172-3.226-5.18-.764-2.012-1.147-4.22-1.147-6.62 0-2.408.383-4.615 1.147-6.622.759-2.007 1.834-3.739 3.225-5.196 1.386-1.452 3.05-2.583 4.991-3.396 1.942-.807 4.092-1.21 6.451-1.21 2.36 0 4.513.403 6.46 1.21 1.953.813 3.622 1.944 5.009 3.396 1.391 1.457 2.466 3.19 3.225 5.196.764 2.007 1.147 4.214 1.147 6.622Zm-4.462 0c0-1.972-.269-3.743-.806-5.314-.538-1.565-1.3-2.887-2.285-3.969a9.834 9.834 0 0 0-3.584-2.5c-1.404-.58-2.972-.869-4.704-.869-1.72 0-3.28.29-4.677.87a10 10 0 0 0-3.602 2.5c-.992 1.08-1.756 2.403-2.294 3.968-.537 1.571-.806 3.342-.806 5.314 0 1.97.269 3.736.806 5.295.538 1.559 1.302 2.882 2.294 3.969a9.946 9.946 0 0 0 3.602 2.482c1.398.573 2.957.86 4.677.86 1.732 0 3.3-.287 4.704-.86a9.78 9.78 0 0 0 3.584-2.482c.985-1.087 1.747-2.41 2.285-3.97.537-1.558.806-3.323.806-5.294Zm10.393-16.065h19.783v3.539h-15.41v11.226h13.17v3.54h-13.17v13.798h-4.373V79.519Zm47.577 0 12.84 32.103h-3.36c-.389 0-.702-.099-.942-.296a1.752 1.752 0 0 1-.537-.735l-3.002-7.75H226.42l-3.002 7.75c-.1.269-.28.508-.537.717-.251.209-.565.314-.94.314h-3.36l12.839-32.103h4.408Zm-3.154 7.15-5.044 13.036h11.988l-5.045-13.063c-.328-.807-.647-1.813-.958-3.02-.168.61-.33 1.174-.484 1.694-.155.513-.307.965-.457 1.353Zm22.283-7.15c.388 0 .675.05.86.152.19.096.406.293.645.591l18.592 24.192a12.612 12.612 0 0 1-.09-1.13c-.018-.37-.027-.725-.027-1.065v-22.74h3.808v32.103h-2.195c-.34 0-.627-.06-.86-.18-.233-.119-.46-.322-.681-.609L256.434 86.67c.03.37.054.734.072 1.093.012.358.018.687.018.985v22.875h-3.808V79.519h2.24Zm48.338 18.708h-3.288v13.395h-4.328V79.519h9.076c2.032 0 3.784.206 5.26.618 1.48.412 2.703 1.006 3.664 1.783a7.177 7.177 0 0 1 2.142 2.813c.46 1.093.69 2.32.69 3.683 0 1.135-.18 2.195-.538 3.18a8.348 8.348 0 0 1-1.559 2.653 9.061 9.061 0 0 1-2.482 2.007c-.98.549-2.087.967-3.324 1.254.538.31 1.015.764 1.434 1.362l9.363 12.75h-3.853c-.795 0-1.377-.308-1.747-.923L305.47 99.23c-.257-.358-.535-.615-.833-.77-.298-.155-.746-.233-1.344-.233Zm-3.288-15.277v12.114h4.542c1.273 0 2.39-.152 3.351-.457.962-.305 1.768-.737 2.42-1.3a5.398 5.398 0 0 0 1.469-2.006c.329-.777.493-1.634.493-2.572 0-1.91-.634-3.353-1.9-4.327-1.26-.968-3.136-1.452-5.627-1.452h-4.748Zm34.002 16.665h-5.152v12.007h-4.327V79.519h9.479c2.025 0 3.79.235 5.295.708 1.5.472 2.742 1.14 3.728 2.006a8.058 8.058 0 0 1 2.204 3.136c.49 1.225.734 2.59.734 4.095 0 1.494-.262 2.86-.788 4.104a8.746 8.746 0 0 1-2.294 3.207c-1.01.89-2.26 1.586-3.754 2.088-1.494.502-3.201.752-5.125.752Zm-5.152-16.665v13.216h5.152c1.237 0 2.33-.164 3.28-.493.95-.329 1.744-.788 2.383-1.38a5.872 5.872 0 0 0 1.46-2.114c.329-.824.493-1.73.493-2.715 0-2.043-.634-3.64-1.9-4.793-1.26-1.147-3.165-1.72-5.716-1.72h-5.152Zm36.914 25.509c.867 0 1.66-.039 2.384-.117a14.975 14.975 0 0 0 2.052-.376 13.38 13.38 0 0 0 1.81-.591c.567-.233 1.135-.5 1.702-.798V99.5h-4.973c-.28 0-.508-.08-.68-.242a.816.816 0 0 1-.26-.61v-2.463h9.855v12.32a17.367 17.367 0 0 1-2.518 1.523c-.871.436-1.807.8-2.804 1.093-.992.287-2.054.502-3.19.645a29.544 29.544 0 0 1-3.691.215c-2.33 0-4.465-.4-6.406-1.2-1.942-.795-3.614-1.915-5.018-3.36-1.404-1.44-2.5-3.17-3.288-5.188-.782-2.014-1.174-4.23-1.174-6.648 0-2.45.385-4.684 1.156-6.702.77-2.014 1.866-3.74 3.288-5.18 1.428-1.444 3.154-2.562 5.179-3.35 2.025-.795 4.292-1.192 6.8-1.192 1.266 0 2.446.096 3.54.287a16.32 16.32 0 0 1 3.028.806c.938.347 1.8.77 2.59 1.273a15.805 15.805 0 0 1 2.221 1.693l-1.236 1.971c-.25.4-.58.6-.986.6-.239 0-.499-.08-.78-.241a21.462 21.462 0 0 1-1.253-.762 10.902 10.902 0 0 0-1.694-.86c-.663-.28-1.449-.517-2.356-.708-.903-.19-1.971-.287-3.208-.287-1.81 0-3.447.293-4.91.878-1.463.592-2.708 1.437-3.736 2.536-1.033 1.093-1.825 2.422-2.374 3.987-.556 1.56-.834 3.309-.834 5.25 0 2.032.287 3.842.86 5.43.58 1.589 1.392 2.936 2.437 4.041a10.542 10.542 0 0 0 3.719 2.536c1.433.58 3.017.869 4.748.869ZM166.075 115.026l12.84 32.103h-3.36c-.389 0-.702-.098-.942-.295a1.752 1.752 0 0 1-.537-.735l-3.002-7.75h-14.407l-3.001 7.75c-.102.269-.28.508-.538.717-.251.208-.565.313-.94.313h-3.36l12.839-32.103h4.408Zm-3.154 7.15-5.044 13.037h11.988l-5.045-13.064c-.328-.806-.647-1.812-.958-3.02-.168.61-.33 1.175-.484 1.694a19.32 19.32 0 0 1-.457 1.353Zm47.863 8.915c0 2.401-.379 4.588-1.138 6.559-.764 1.97-1.84 3.658-3.225 5.062-1.392 1.404-3.058 2.49-5 3.261-1.941.77-4.092 1.156-6.45 1.156h-12.007v-32.103h12.006c2.36 0 4.51.386 6.451 1.156 1.942.77 3.608 1.861 5 3.27 1.386 1.41 2.461 3.1 3.225 5.072.76 1.97 1.138 4.16 1.138 6.567Zm-4.462 0c0-1.971-.266-3.733-.797-5.286-.538-1.553-1.3-2.867-2.285-3.942a9.738 9.738 0 0 0-3.584-2.464c-1.404-.567-2.966-.851-4.686-.851h-7.634v25.06h7.634c1.72 0 3.282-.284 4.686-.851s2.598-1.383 3.584-2.446c.986-1.07 1.747-2.38 2.285-3.934.531-1.552.797-3.315.797-5.286Zm38.196 0c0 2.401-.38 4.588-1.138 6.559-.764 1.97-1.84 3.658-3.226 5.062-1.391 1.404-3.058 2.49-5 3.261-1.94.77-4.091 1.156-6.45 1.156h-12.006v-32.103h12.006c2.359 0 4.51.386 6.45 1.156 1.942.77 3.609 1.861 5 3.27 1.386 1.41 2.462 3.1 3.226 5.072.759 1.97 1.138 4.16 1.138 6.567Zm-4.453 0c0-1.971-.27-3.733-.807-5.286-.537-1.553-1.299-2.867-2.284-3.942a9.738 9.738 0 0 0-3.584-2.464c-1.404-.567-2.966-.851-4.686-.851h-7.634v25.06h7.634c1.72 0 3.282-.284 4.686-.851s2.598-1.383 3.584-2.446c.985-1.07 1.747-2.38 2.284-3.934.538-1.552.807-3.315.807-5.286Zm15.518-16.065v32.103h-4.345v-32.103h4.345Zm31.225 25.473c.24 0 .457.096.654.287l1.702 1.863a13.688 13.688 0 0 1-4.784 3.557c-1.875.854-4.133 1.282-6.774 1.282-2.318 0-4.417-.4-6.299-1.201-1.881-.795-3.485-1.915-4.81-3.36-1.333-1.44-2.364-3.169-3.092-5.188-.735-2.013-1.102-4.229-1.102-6.648 0-2.419.391-4.638 1.174-6.657.788-2.013 1.89-3.745 3.306-5.197 1.422-1.445 3.12-2.568 5.098-3.368 1.977-.8 4.16-1.201 6.55-1.201 2.359 0 4.392.367 6.101 1.102a15.514 15.514 0 0 1 4.56 2.975l-1.406 1.998c-.108.15-.227.271-.358.367-.138.096-.332.143-.583.143-.197 0-.403-.069-.618-.206-.215-.143-.472-.32-.77-.528a16.306 16.306 0 0 0-1.058-.672c-.4-.24-.878-.464-1.433-.672a11.836 11.836 0 0 0-1.927-.529c-.728-.137-1.57-.206-2.526-.206-1.72 0-3.295.293-4.722.878a10.571 10.571 0 0 0-3.683 2.518c-1.027 1.093-1.83 2.422-2.41 3.987-.573 1.57-.86 3.327-.86 5.268 0 2 .287 3.784.86 5.35.58 1.57 1.365 2.896 2.357 3.977a9.893 9.893 0 0 0 3.53 2.473c1.355.567 2.82.851 4.39.851.956 0 1.813-.053 2.571-.16.765-.115 1.47-.29 2.115-.53a9.066 9.066 0 0 0 1.819-.904c.562-.37 1.126-.81 1.693-1.318.251-.22.496-.331.735-.331Zm4.793-25.473h25.133v3.656h-10.367v28.447h-4.354v-28.447H291.6v-3.656ZM139.449 5.465c.83 0 1.504 1.164 1.504 2.6v139.87c0 1.436-.673 2.6-1.504 2.6-.83 0-1.504-1.164-1.504-2.6V8.065c0-1.436.673-2.6 1.504-2.6Z"/>
    </g>
</svg>
